<svg width="35" height="22" viewBox="0 0 35 22" fill="none" xmlns="http://www.w3.org/2000/svg">
<rect x="0.2" y="0.2" width="34.6" height="21.6" rx="5.8" fill="#8C32BD" stroke="black" stroke-width="0.4"/>
<path d="M4.404 15.12C4.164 15.12 3.972 15.056 3.828 14.928C3.684 14.8 3.612 14.624 3.612 14.4V9.876C3.612 8.812 3.944 7.98 4.608 7.38C5.272 6.78 6.192 6.48 7.368 6.48C8.544 6.48 9.464 6.78 10.128 7.38C10.792 7.98 11.124 8.812 11.124 9.876V14.4C11.124 14.624 11.052 14.8 10.908 14.928C10.764 15.056 10.572 15.12 10.332 15.12C10.092 15.12 9.896 15.056 9.744 14.928C9.6 14.792 9.528 14.616 9.528 14.4V9.84C9.528 9.16 9.344 8.64 8.976 8.28C8.608 7.92 8.072 7.74 7.368 7.74C6.664 7.74 6.128 7.92 5.76 8.28C5.392 8.64 5.208 9.16 5.208 9.84V14.4C5.208 14.616 5.132 14.792 4.98 14.928C4.836 15.056 4.644 15.12 4.404 15.12ZM14.3225 15C13.7145 15 13.2425 14.84 12.9065 14.52C12.5705 14.2 12.4025 13.752 12.4025 13.176V8.376C12.4025 7.816 12.5625 7.38 12.8825 7.068C13.2105 6.756 13.6625 6.6 14.2385 6.6H17.9705C18.2105 6.6 18.3945 6.656 18.5225 6.768C18.6505 6.872 18.7145 7.024 18.7145 7.224C18.7145 7.416 18.6465 7.568 18.5105 7.68C18.3825 7.784 18.2025 7.836 17.9705 7.836H14.5145C14.3545 7.836 14.2265 7.888 14.1305 7.992C14.0425 8.096 13.9985 8.24 13.9985 8.424V10.092H17.0585C17.2985 10.092 17.4825 10.148 17.6105 10.26C17.7385 10.364 17.8025 10.516 17.8025 10.716C17.8025 10.908 17.7345 11.06 17.5985 11.172C17.4705 11.276 17.2905 11.328 17.0585 11.328H13.9985V13.176C13.9985 13.36 14.0425 13.504 14.1305 13.608C14.2265 13.712 14.3545 13.764 14.5145 13.764H18.2345C18.4745 13.764 18.6585 13.82 18.7865 13.932C18.9145 14.036 18.9785 14.188 18.9785 14.388C18.9785 14.58 18.9105 14.732 18.7745 14.844C18.6465 14.948 18.4665 15 18.2345 15H14.3225ZM22.9432 15.12C22.4952 15.12 22.1352 14.984 21.8632 14.712C21.5992 14.432 21.4112 13.996 21.2992 13.404L20.1112 7.296C20.0952 7.2 20.0872 7.132 20.0872 7.092C20.0872 6.892 20.1512 6.74 20.2792 6.636C20.4152 6.532 20.5992 6.48 20.8312 6.48C21.3112 6.48 21.5912 6.692 21.6712 7.116L22.8112 13.536C22.8432 13.664 22.8712 13.752 22.8952 13.8C22.9192 13.84 22.9512 13.86 22.9912 13.86C23.0872 13.86 23.1472 13.756 23.1712 13.548L23.9272 7.8C23.9832 7.384 24.1352 7.06 24.3832 6.828C24.6392 6.596 24.9632 6.48 25.3552 6.48C25.7472 6.48 26.0672 6.596 26.3152 6.828C26.5712 7.06 26.7272 7.384 26.7832 7.8L27.5392 13.548C27.5632 13.756 27.6232 13.86 27.7192 13.86C27.7592 13.86 27.7912 13.84 27.8152 13.8C27.8392 13.752 27.8672 13.664 27.8992 13.536L29.0392 7.116C29.1192 6.692 29.3992 6.48 29.8792 6.48C30.1112 6.48 30.2912 6.532 30.4192 6.636C30.5552 6.74 30.6232 6.892 30.6232 7.092C30.6232 7.132 30.6152 7.2 30.5992 7.296L29.4112 13.404C29.2992 13.996 29.1072 14.432 28.8352 14.712C28.5712 14.984 28.2152 15.12 27.7672 15.12C27.3192 15.12 26.9712 14.984 26.7232 14.712C26.4752 14.44 26.3112 14.016 26.2312 13.44L25.5232 8.064C25.5072 7.944 25.4872 7.86 25.4632 7.812C25.4392 7.764 25.4032 7.74 25.3552 7.74C25.3072 7.74 25.2712 7.764 25.2472 7.812C25.2232 7.86 25.2032 7.944 25.1872 8.064L24.4792 13.44C24.3992 14.016 24.2352 14.44 23.9872 14.712C23.7392 14.984 23.3912 15.12 22.9432 15.12Z" fill="white"/>
</svg>
